<?xml version="1.0" encoding="UTF-8" standalone="no"?>
<!DOCTYPE svg PUBLIC "-//W3C//DTD SVG 1.1//EN" "http://www.w3.org/Graphics/SVG/1.1/DTD/svg11.dtd">
<svg width="100%" height="100%" viewBox="0 0 512 512" version="1.1" xmlns="http://www.w3.org/2000/svg" xmlns:xlink="http://www.w3.org/1999/xlink" xml:space="preserve" xmlns:serif="http://www.serif.com/" style="fill-rule:evenodd;clip-rule:evenodd;stroke-linejoin:round;stroke-miterlimit:1.41421;">
    <g transform="matrix(2.34799,0,0,2.34799,-81.8741,-68.2343)">
        <g>
            <path d="M143.899,29.061C204.074,29.061 252.929,77.915 252.929,138.09C252.929,198.265 204.074,247.119 143.899,247.119C83.724,247.119 34.87,198.265 34.87,138.09C34.87,77.915 83.724,29.061 143.899,29.061ZM121.06,68.376L121.381,64.914C124.929,64.407 128.552,63.9 132.252,63.393C135.952,62.886 139.323,62.379 142.364,61.873C145.912,61.366 149.358,60.757 152.703,60.048L153.92,62.937C152.906,64.052 152.07,68.867 151.411,77.382C150.752,85.897 150.22,97.148 149.814,111.137C153.869,108.197 157.391,105.815 160.382,103.991C163.372,102.166 165.323,101.254 166.236,101.254C170.696,101.254 174.7,102.039 178.248,103.61C181.796,105.182 184.837,107.412 187.371,110.301C189.905,113.19 191.831,116.712 193.149,120.868C194.466,125.024 195.125,129.687 195.125,134.857C195.125,140.635 194.188,145.957 192.312,150.822C190.437,155.688 187.802,159.869 184.406,163.366C181.01,166.864 176.955,169.575 172.242,171.501C167.528,173.427 162.384,174.39 156.809,174.39C153.768,174.39 150.803,174.263 147.914,174.01C145.025,173.757 142.414,173.478 140.083,173.174C137.447,172.768 134.964,172.363 132.632,171.957L131.112,170.437L131.112,84.72C109.256,92.697 93.884,113.655 93.884,137.971C93.884,169.254 119.283,194.653 150.567,194.653C169.215,194.653 186.67,185.481 197.248,170.123L212.808,180.84C198.704,201.317 175.431,213.547 150.567,213.547C108.855,213.547 74.99,179.682 74.99,137.971C74.99,106.889 93.827,79.922 121.06,68.376ZM149.054,159.489C150.068,159.996 151.639,160.503 153.768,161.01C155.896,161.516 158.025,161.77 160.154,161.77C165.019,161.77 168.77,159.945 171.405,156.296C174.041,152.647 175.359,147.426 175.359,140.635C175.359,133.032 174.016,127.001 171.329,122.541C168.643,118.081 165.07,115.851 160.61,115.851C158.785,115.851 156.834,116.307 154.756,117.219C152.678,118.131 150.929,119.297 149.51,120.716L149.054,159.489Z"/>
        </g>
    </g>
</svg>
